<?xml version="1.0" encoding="utf-8"?>
<!-- Generator: Adobe Illustrator 25.2.1, SVG Export Plug-In . SVG Version: 6.00 Build 0)  -->
<svg version="1.1" id="图层_1" xmlns="http://www.w3.org/2000/svg" xmlns:xlink="http://www.w3.org/1999/xlink" x="0px" y="0px"
	 viewBox="0 0 256 256" style="enable-background:new 0 0 256 256;" xml:space="preserve">
<style type="text/css">
	.st0{fill:#826EC3;}
	.st1{fill:#7C7BC5;}
	.st2{fill:#7588C7;}
	.st3{fill:#6F95C9;}
	.st4{fill:#68A1CC;}
	.st5{fill:#62AECE;}
	.st6{fill:#5BBBD0;}
	.st7{fill:#55C8D2;}
</style>
<path class="st0" d="M128.1,16.9c3.3,0,6.8,2,8.8,4.8L241,202c2,3.1,2,6.8,0,9.9s-4.8,4.8-8.8,4.8H24.3c-3.3,0-6.8-2-8.8-4.8
	s-2-6.8,0-9.9L119.6,21.8C121.3,18.9,124.6,16.9,128.1,16.9z M128.1,14.3c-4.2,0-8.8,2.2-11,6.4l-103.8,180
	c-4.8,8.4,1.1,18.9,11,18.9h207.9c9.9,0,15.8-10.6,11-18.9l-104.1-180C136.7,16.5,132.3,14.3,128.1,14.3z"/>
<path class="st1" d="M121.5,22.9c3.3,0,6.2,1.5,7.9,4.2l109.1,166.3c2,3.1,2.2,6.4,0.4,9.5c-1.5,3.1-4.6,4.8-7.9,5.3L32.7,219.6
	c-0.4,0-0.4,0-0.7,0c-3.3,0-6.4-1.5-7.9-4.6s-2-6.4-0.4-9L113,28.4C114.5,25.3,117.8,22.9,121.5,22.9z M121.5,20.2
	c-4.2,0-8.8,2.2-11,6.8L21.7,204.8c-4.2,7.9,2,17.4,11,17.4c0.4,0,0.4,0,0.7,0l198.5-11.4c9.5-0.4,14.3-11,9.5-18.9L131.4,25.9
	C129.2,22.2,125.5,20.2,121.5,20.2z"/>
<path class="st2" d="M114.7,29c3.1,0,5.7,1.1,7.3,3.7l114.4,151.8c2,2.6,2.2,6.2,1.1,9c-1.1,3.1-4.2,4.8-7.3,5.7L41.7,222
	c-0.4,0-0.7,0-1.1,0c-3.1,0-5.7-1.5-7.5-4.2c-1.5-2.6-2-5.7-0.7-8.8l74.1-174.5C107.9,31.2,111,29,114.7,29z M114.7,26.8
	c-4.6,0-8.8,2.6-10.6,7.3L30,208.6c-3.3,7.5,2.6,16.3,10.6,16.3c0.4,0,1.1,0,1.5,0l188.6-23.1c8.8-1.1,13.2-11.4,7.9-18.5L124,31.2
	C121.5,27.9,118.2,26.8,114.7,26.8z"/>
<path class="st3" d="M108.3,34.7c2.6,0,4.8,1.1,6.8,3.1l119.2,137.5c2.2,2.2,2.6,5.7,1.5,8.8c-1.1,3.1-3.3,5.3-6.8,5.7L50.5,224.4
	c-0.7,0-1.1,0.4-2,0.4c-2.6,0-5.7-1.5-7.3-3.7c-1.5-2.2-2.2-5.3-1.1-7.9L100,41.3C100.9,37.4,104.2,34.7,108.3,34.7z M108.3,32.8
	c-4.6,0-8.8,2.6-10.6,7.5L38.4,212.1c-2.6,7.3,3.1,14.7,10.6,14.7c0.7,0,1.5,0,2.2-0.4l178.4-34.5c8.4-1.5,11.7-11.7,6.4-18.3
	L116.7,36.5C114.5,33.9,111,32.8,108.3,32.8z"/>
<path class="st4" d="M101.5,40.7c2.2,0,4.6,0.7,6.2,2.6l124.5,123.4c2.2,2.2,3.1,5.3,2.2,8.4c-0.7,3.1-3.1,5.3-6.2,6.2L59.1,227.5
	c-0.7,0.4-1.5,0.4-2.2,0.4c-2.6,0-5.3-1.1-6.8-3.3c-1.5-2.2-2.2-4.8-1.5-7.5L93.2,47.5C94.3,42.7,98.2,40.7,101.5,40.7z M101.5,38.9
	c-4.6,0-9,3.1-10.1,7.9L46.7,216c-2,6.8,3.3,13.2,10.1,13.2c0.7,0,2,0,3.1-0.4l169.2-46.2c7.9-2.2,10.6-12.1,4.6-17.8L109.2,42
	C106.8,39.6,104.2,38.9,101.5,38.9z"/>
<path class="st5" d="M94.7,46.4c2,0,3.7,0.7,5.3,2l129.6,109.1c2.2,2,3.3,4.8,3.1,7.9c-0.4,3.1-2.6,5.3-5.3,6.4L67.9,230.1
	c-1.1,0.4-2,0.4-3.1,0.4c-2.6,0-4.8-1.1-6.4-3.1c-1.5-2-2.2-4.6-2-6.8l29.9-167C87.2,48.6,91.4,46.4,94.7,46.4z M94.7,44.6
	c-4.8,0-9,3.3-10.1,8.8l-29.9,167c-1.1,6.4,4.2,12.1,10.1,12.1c1.1,0,2.2-0.4,3.3-0.7l159.5-57.6c7.5-2.6,9-12.5,3.1-17.8
	L101.5,47.3C99.3,45.3,96.9,44.6,94.7,44.6z"/>
<path class="st6" d="M88.3,52.1c1.5,0,3.3,0.4,4.8,1.5l134.9,95c2.6,2,3.7,4.6,3.3,7.5c-0.4,3.1-2.2,5.7-4.8,6.8L76.9,232.3
	c-1.1,0.4-2.2,0.7-3.3,0.7c-2.2,0-4.6-1.1-6.4-2.6c-1.5-2-2.2-4.2-2.2-6.4L79.7,59.6C80.4,54.8,84.6,52.1,88.3,52.1z M88.3,50.6
	c-4.8,0-9.5,3.7-10.1,9L63.5,224c-0.7,6.2,4.6,11,10.1,11c1.5,0,2.6-0.4,4.2-1.1L227.4,165c7.3-3.3,7.9-13,1.5-17.4L94,52.6
	C92.1,51,90.1,50.6,88.3,50.6z"/>
<path class="st7" d="M81.5,57.8c1.5,0,3.1,0.4,4.2,1.1l140.2,80.7c2.6,1.5,4.2,4.2,4.2,7.3c0,3.1-1.5,5.7-4.2,7.3l-140.2,81
	c-1.1,0.7-2.6,1.1-4.2,1.1c-2.2,0-4.2-0.7-5.7-2.2c-1.5-1.5-2.6-3.7-2.6-6.2V66.2c0-2.2,0.7-4.6,2.6-6.2
	C77.3,58.5,79.3,57.8,81.5,57.8z M81.5,56.3c-5.3,0-9.9,4.2-9.9,9.9v161.7c0,5.7,4.6,9.9,9.9,9.9c1.5,0,3.3-0.4,4.8-1.1L226.5,156
	c6.4-3.7,6.4-13.2,0-16.9L86.3,57.8C84.8,56.7,83,56.3,81.5,56.3z"/>
</svg>
