<?xml version="1.0" encoding="utf-8"?>
<!-- Generator: Adobe Illustrator 25.2.1, SVG Export Plug-In . SVG Version: 6.00 Build 0)  -->
<svg version="1.1" id="图层_1" xmlns="http://www.w3.org/2000/svg" xmlns:xlink="http://www.w3.org/1999/xlink" x="0px" y="0px"
	 viewBox="0 0 179 59" style="enable-background:new 0 0 179 59;" xml:space="preserve">
<style type="text/css">
	.st0{fill:#826EC3;}
	.st1{fill:#7C7BC5;}
	.st2{fill:#7588C7;}
	.st3{fill:#6F95C9;}
	.st4{fill:#68A1CC;}
	.st5{fill:#62AECE;}
	.st6{fill:#5BBBD0;}
	.st7{fill:#55C8D2;}
</style>
<path d="M112.6,25.4h8.3v-2.7h-8.3v-4.4h10.6v-3h-12.2c-1,0-1.8,0.8-1.8,1.8V31c0,1,0.8,1.8,1.8,1.8h12.2v-3h-10.7V25.4z"/>
<path d="M79.8,15.1c-0.9,0-1.7,0.5-2.1,1.4l-7.2,16.4H74l1.5-3.6h8.4l1.5,3.6H89l-7.2-16.4C81.5,15.6,80.6,15.1,79.8,15.1z
	 M76.6,26.6l3.1-7.5l3.1,7.5H76.6z"/>
<path d="M106.2,17.2c0-1-0.9-1.9-2-1.9H90.9v3h10.7L91.1,29.6c-0.3,0.3-0.6,0.9-0.6,1.4c0,1,0.7,1.9,1.8,1.9H106v-3.1H95.3
	l10.4-11.3C106,18.2,106.2,17.6,106.2,17.2z"/>
<path d="M139.5,27.5L130.3,16c-0.4-0.5-1-0.8-1.7-0.8c-1.1,0-1.8,0.9-1.8,1.9v15.8h3.1V20.6l9.3,11.7c0.4,0.5,0.9,0.7,1.7,0.7
	c1,0,1.7-0.8,1.7-1.8V15.3h-3.1V27.5z"/>
<path d="M174.5,32.9h3.6l-7.2-16.4c-0.3-0.8-1.2-1.4-2.1-1.4c-0.9,0-1.7,0.5-2.1,1.4l-7.2,16.4h3.5l1.5-3.6h8.4L174.5,32.9z
	 M165.7,26.6l3.1-7.5l3.1,7.5H165.7z"/>
<path d="M161.6,15.3h-16.2v3.1h6.4v14.5h3.4V18.4h6.4V15.3z"/>
<path d="M72.2,39H71v5.9h4.3v-1h-3.2V39z"/>
<path d="M77.9,39h-1.2v5.9h1.2V39z"/>
<path d="M79.9,44.9H81v-2.3h2.7v-1H81V40h3.4v-1h-4.6V44.9z"/>
<path d="M87.1,42.3h2.8v-0.9h-2.8V40h3.6v-1h-4.7v5.9h4.7v-1h-3.6V42.3z"/>
<path d="M99.1,42c-0.3-0.3-0.9-0.4-1.8-0.6c-0.6-0.1-1.1-0.2-1.3-0.3c-0.2-0.1-0.4-0.3-0.4-0.5c0-0.4,0.4-0.7,1.2-0.7
	c1,0,1.4,0.5,1.5,1l1.1-0.1c-0.2-1-0.9-1.8-2.6-1.8c-1.4,0-2.4,0.7-2.4,1.8c0,0.5,0.2,0.9,0.5,1.1s0.9,0.4,1.7,0.6
	c1.3,0.2,1.7,0.4,1.7,0.9c0,0.5-0.6,0.7-1.3,0.7c-1,0-1.5-0.4-1.6-1.1L94.4,43c0.1,0.6,0.3,1.1,0.7,1.4c0.4,0.4,1.1,0.6,2,0.6
	c1.4,0,2.5-0.7,2.5-1.8C99.6,42.6,99.5,42.3,99.1,42z"/>
<path d="M103.9,39.9c1,0,1.4,0.7,1.5,1.2l1.1-0.2c-0.1-1-0.8-2.1-2.6-2.1c-1.8,0-2.9,1.3-2.9,3.1c0,1.8,1,3.1,2.9,3.1
	c1.8,0,2.5-1.2,2.6-2.1l-1.1-0.2c-0.1,0.6-0.5,1.2-1.5,1.2c-1.2,0-1.7-0.9-1.7-2C102.1,40.8,102.7,39.9,103.9,39.9z"/>
<path d="M109.3,39h-1.2v5.9h1.2V39z"/>
<path d="M112.5,42.3h2.8v-0.9h-2.8V40h3.6v-1h-4.7v5.9h4.7v-1h-3.6V42.3z"/>
<path d="M122.1,43.1L122.1,43.1l-3.2-4.1h-1.1v5.9h1.1v-4.1h0l3.2,4.1h1.1V39h-1V43.1z"/>
<path d="M127.7,39.9c1,0,1.4,0.7,1.5,1.2l1.1-0.2c-0.1-1-0.8-2.1-2.6-2.1c-1.8,0-2.9,1.3-2.9,3.1c0,1.8,1,3.1,2.9,3.1
	c1.8,0,2.5-1.2,2.6-2.1l-1.1-0.2c-0.1,0.6-0.5,1.2-1.5,1.2c-1.2,0-1.7-0.9-1.7-2C126,40.8,126.5,39.9,127.7,39.9z"/>
<path d="M133.1,42.3h2.8v-0.9h-2.8V40h3.6v-1H132v5.9h4.7v-1h-3.6V42.3z"/>
<path d="M142.7,42c-0.3-0.3-0.9-0.4-1.8-0.6c-0.6-0.1-1.1-0.2-1.3-0.3c-0.2-0.1-0.4-0.3-0.4-0.5c0-0.4,0.4-0.7,1.2-0.7
	c1,0,1.4,0.5,1.5,1l1.1-0.1c-0.2-1-0.9-1.8-2.6-1.8c-1.4,0-2.4,0.7-2.4,1.8c0,0.5,0.2,0.9,0.5,1.1c0.3,0.2,0.9,0.4,1.7,0.6
	c1.3,0.2,1.7,0.4,1.7,0.9c0,0.5-0.6,0.7-1.3,0.7c-1,0-1.5-0.4-1.6-1.1L138,43c0.1,0.6,0.3,1.1,0.7,1.4c0.4,0.4,1.1,0.6,2,0.6
	c1.4,0,2.5-0.7,2.5-1.8C143.2,42.6,143,42.3,142.7,42z"/>
<path class="st0" d="M30.8,0.7c0.9,0,1.8,0.5,2.3,1.3l27.5,47.6c0.5,0.8,0.5,1.8,0,2.6c-0.5,0.8-1.3,1.3-2.3,1.3H3.4
	c-0.9,0-1.8-0.5-2.3-1.3c-0.5-0.8-0.5-1.8,0-2.6L28.6,2C29,1.2,29.9,0.7,30.8,0.7z M30.8,0c-1.1,0-2.3,0.6-2.9,1.7L0.5,49.2
	c-1.3,2.2,0.3,5,2.9,5h54.9c2.6,0,4.2-2.8,2.9-5L33.7,1.7C33.1,0.6,31.9,0,30.8,0z"/>
<path class="st1" d="M29.1,2.3c0.9,0,1.6,0.4,2.1,1.1L60,47.3c0.5,0.8,0.6,1.7,0.1,2.5c-0.4,0.8-1.2,1.3-2.1,1.4l-52.4,3
	c-0.1,0-0.1,0-0.2,0c-0.9,0-1.7-0.4-2.1-1.2s-0.5-1.7-0.1-2.4L26.8,3.7C27.2,2.9,28.1,2.3,29.1,2.3z M29.1,1.6
	c-1.1,0-2.3,0.6-2.9,1.8L2.7,50.3c-1.1,2.1,0.5,4.6,2.9,4.6c0.1,0,0.1,0,0.2,0l52.4-3c2.5-0.1,3.8-2.9,2.5-5L31.7,3.1
	C31.1,2.1,30.1,1.6,29.1,1.6z"/>
<path class="st2" d="M27.3,3.9c0.8,0,1.5,0.3,1.9,1l30.2,40.1c0.5,0.7,0.6,1.6,0.3,2.4c-0.3,0.8-1.1,1.3-1.9,1.5L8,54.9
	c-0.1,0-0.2,0-0.3,0c-0.8,0-1.5-0.4-2-1.1c-0.4-0.7-0.5-1.5-0.2-2.3L25.1,5.4C25.5,4.5,26.3,3.9,27.3,3.9z M27.3,3.3
	c-1.2,0-2.3,0.7-2.8,1.9L4.9,51.3c-0.9,2,0.7,4.3,2.8,4.3c0.1,0,0.3,0,0.4,0l49.8-6.1c2.3-0.3,3.5-3,2.1-4.9L29.7,4.5
	C29.1,3.6,28.2,3.3,27.3,3.3z"/>
<path class="st3" d="M25.6,5.4c0.7,0,1.3,0.3,1.8,0.8l31.5,36.3c0.6,0.6,0.7,1.5,0.4,2.3c-0.3,0.8-0.9,1.4-1.8,1.5l-47.2,9.1
	c-0.2,0-0.3,0.1-0.5,0.1c-0.7,0-1.5-0.4-1.9-1c-0.4-0.6-0.6-1.4-0.3-2.1L23.4,7C23.6,6.1,24.5,5.4,25.6,5.4z M25.6,4.9
	c-1.2,0-2.3,0.7-2.8,2L7.1,52.3c-0.7,1.9,0.8,3.9,2.8,3.9c0.2,0,0.4,0,0.6-0.1L57.6,47c2.2-0.4,3.1-3.1,1.7-4.8L27.8,5.9
	C27.2,5.2,26.3,4.9,25.6,4.9z"/>
<path class="st4" d="M23.8,7c0.6,0,1.2,0.2,1.6,0.7l32.9,32.6c0.6,0.6,0.8,1.4,0.6,2.2s-0.8,1.4-1.6,1.6L12.6,56.3
	c-0.2,0.1-0.4,0.1-0.6,0.1c-0.7,0-1.4-0.3-1.8-0.9c-0.4-0.6-0.6-1.3-0.4-2L21.6,8.7C21.9,7.5,22.9,7,23.8,7z M23.8,6.5
	c-1.2,0-2.4,0.8-2.7,2.1L9.3,53.3c-0.5,1.8,0.9,3.5,2.7,3.5c0.2,0,0.5,0,0.8-0.1l44.7-12.2c2.1-0.6,2.8-3.2,1.2-4.7L25.8,7.3
	C25.2,6.7,24.5,6.5,23.8,6.5z"/>
<path class="st5" d="M22,8.5c0.5,0,1,0.2,1.4,0.5l34.2,28.8c0.6,0.5,0.9,1.3,0.8,2.1c-0.1,0.8-0.7,1.4-1.4,1.7L14.9,57
	c-0.3,0.1-0.5,0.1-0.8,0.1c-0.7,0-1.3-0.3-1.7-0.8c-0.4-0.5-0.6-1.2-0.5-1.8l7.9-44.1C20,9.1,21.1,8.5,22,8.5z M22,8
	c-1.3,0-2.4,0.9-2.7,2.3l-7.9,44.1c-0.3,1.7,1.1,3.2,2.7,3.2c0.3,0,0.6-0.1,0.9-0.2l42.1-15.2c2-0.7,2.4-3.3,0.8-4.7L23.8,8.7
	C23.2,8.2,22.6,8,22,8z"/>
<path class="st6" d="M20.3,10c0.4,0,0.9,0.1,1.3,0.4l35.6,25.1c0.7,0.5,1,1.2,0.9,2c-0.1,0.8-0.6,1.5-1.3,1.8L17.3,57.6
	c-0.3,0.1-0.6,0.2-0.9,0.2c-0.6,0-1.2-0.3-1.7-0.7c-0.4-0.5-0.6-1.1-0.6-1.7L18,12C18.2,10.7,19.3,10,20.3,10z M20.3,9.6
	c-1.3,0-2.5,1-2.7,2.4l-3.9,43.4c-0.2,1.6,1.2,2.9,2.7,2.9c0.4,0,0.7-0.1,1.1-0.3L57,39.8c1.9-0.9,2.1-3.4,0.4-4.6L21.8,10.1
	C21.3,9.7,20.8,9.6,20.3,9.6z"/>
<path class="st7" d="M18.5,11.5c0.4,0,0.8,0.1,1.1,0.3l37,21.3c0.7,0.4,1.1,1.1,1.1,1.9c0,0.8-0.4,1.5-1.1,1.9l-37,21.4
	c-0.3,0.2-0.7,0.3-1.1,0.3c-0.6,0-1.1-0.2-1.5-0.6c-0.4-0.4-0.7-1-0.7-1.6V13.7c0-0.6,0.2-1.2,0.7-1.6
	C17.4,11.7,17.9,11.5,18.5,11.5z M18.5,11.1c-1.4,0-2.6,1.1-2.6,2.6v42.7c0,1.5,1.2,2.6,2.6,2.6c0.4,0,0.9-0.1,1.3-0.3l37-21.3
	c1.7-1,1.7-3.5,0-4.5L19.8,11.5C19.4,11.2,18.9,11.1,18.5,11.1z"/>
</svg>
