<?xml version="1.0" encoding="utf-8"?>
<!-- Generator: Adobe Illustrator 25.2.1, SVG Export Plug-In . SVG Version: 6.00 Build 0)  -->
<svg version="1.1" id="图层_1" xmlns="http://www.w3.org/2000/svg" xmlns:xlink="http://www.w3.org/1999/xlink" x="0px" y="0px"
	 viewBox="0 0 128 128" style="enable-background:new 0 0 128 128;" xml:space="preserve">
<style type="text/css">
	.st0{fill:#826EC3;}
	.st1{fill:#7C7BC5;}
	.st2{fill:#7588C7;}
	.st3{fill:#6F95C9;}
	.st4{fill:#68A1CC;}
	.st5{fill:#62AECE;}
	.st6{fill:#5BBBD0;}
	.st7{fill:#55C8D2;}
</style>
<path class="st0" d="M63.6,13.5c1.5,0,3.1,0.9,4,2.2l47.3,81.9c0.9,1.4,0.9,3.1,0,4.5s-2.2,2.2-4,2.2H16.4c-1.5,0-3.1-0.9-4-2.2
	s-0.9-3.1,0-4.5l47.3-81.9C60.5,14.4,62,13.5,63.6,13.5z M63.6,12.3c-1.9,0-4,1-5,2.9L11.4,97c-2.2,3.8,0.5,8.6,5,8.6h94.5
	c4.5,0,7.2-4.8,5-8.6L68.6,15.2C67.5,13.3,65.5,12.3,63.6,12.3z"/>
<path class="st1" d="M60.6,16.2c1.5,0,2.8,0.7,3.6,1.9l49.6,75.6c0.9,1.4,1,2.9,0.2,4.3c-0.7,1.4-2.1,2.2-3.6,2.4l-90.2,5.2
	c-0.2,0-0.2,0-0.3,0c-1.5,0-2.9-0.7-3.6-2.1s-0.9-2.9-0.2-4.1l40.6-80.7C57.4,17.3,58.9,16.2,60.6,16.2z M60.6,15c-1.9,0-4,1-5,3.1
	L15.2,98.9c-1.9,3.6,0.9,7.9,5,7.9c0.2,0,0.2,0,0.3,0l90.2-5.2c4.3-0.2,6.5-5,4.3-8.6L65.1,17.6C64.1,15.9,62.4,15,60.6,15z"/>
<path class="st2" d="M57.5,19c1.4,0,2.6,0.5,3.3,1.7l52,69c0.9,1.2,1,2.8,0.5,4.1c-0.5,1.4-1.9,2.2-3.3,2.6l-85.7,10.3
	c-0.2,0-0.3,0-0.5,0c-1.4,0-2.6-0.7-3.4-1.9c-0.7-1.2-0.9-2.6-0.3-4l33.7-79.3C54.4,20,55.8,19,57.5,19z M57.5,18
	c-2.1,0-4,1.2-4.8,3.3L19,100.6c-1.5,3.4,1.2,7.4,4.8,7.4c0.2,0,0.5,0,0.7,0l85.7-10.5c4-0.5,6-5.2,3.6-8.4L61.7,20
	C60.6,18.5,59.1,18,57.5,18z"/>
<path class="st3" d="M54.6,21.6c1.2,0,2.2,0.5,3.1,1.4l54.2,62.5c1,1,1.2,2.6,0.7,4c-0.5,1.4-1.5,2.4-3.1,2.6l-81.2,15.7
	c-0.3,0-0.5,0.2-0.9,0.2c-1.2,0-2.6-0.7-3.3-1.7c-0.7-1-1-2.4-0.5-3.6l27.2-78.1C51.2,22.8,52.7,21.6,54.6,21.6z M54.6,20.7
	c-2.1,0-4,1.2-4.8,3.4l-27,78.1c-1.2,3.3,1.4,6.7,4.8,6.7c0.3,0,0.7,0,1-0.2l81.1-15.7c3.8-0.7,5.3-5.3,2.9-8.3L58.4,22.4
	C57.4,21.2,55.8,20.7,54.6,20.7z"/>
<path class="st4" d="M51.5,24.3c1,0,2.1,0.3,2.8,1.2l56.6,56.1c1,1,1.4,2.4,1,3.8c-0.3,1.4-1.4,2.4-2.8,2.8l-76.9,21
	c-0.3,0.2-0.7,0.2-1,0.2c-1.2,0-2.4-0.5-3.1-1.5c-0.7-1-1-2.2-0.7-3.4l20.3-77.1C48.2,25.2,50,24.3,51.5,24.3z M51.5,23.5
	c-2.1,0-4.1,1.4-4.6,3.6L26.6,104c-0.9,3.1,1.5,6,4.6,6c0.3,0,0.9,0,1.4-0.2l76.9-21c3.6-1,4.8-5.5,2.1-8.1L55,24.9
	C53.9,23.8,52.7,23.5,51.5,23.5z"/>
<path class="st5" d="M48.4,26.9c0.9,0,1.7,0.3,2.4,0.9l58.9,49.6c1,0.9,1.5,2.2,1.4,3.6c-0.2,1.4-1.2,2.4-2.4,2.9l-72.5,26.5
	c-0.5,0.2-0.9,0.2-1.4,0.2c-1.2,0-2.2-0.5-2.9-1.4s-1-2.1-0.9-3.1l13.6-75.9C45,27.9,46.9,26.9,48.4,26.9z M48.4,26.1
	c-2.2,0-4.1,1.5-4.6,4l-13.6,75.9c-0.5,2.9,1.9,5.5,4.6,5.5c0.5,0,1-0.2,1.5-0.3l72.5-26.2c3.4-1.2,4.1-5.7,1.4-8.1L51.5,27.3
	C50.5,26.4,49.4,26.1,48.4,26.1z"/>
<path class="st6" d="M45.5,29.5c0.7,0,1.5,0.2,2.2,0.7L109,73.4c1.2,0.9,1.7,2.1,1.5,3.4c-0.2,1.4-1,2.6-2.2,3.1l-68,31.5
	c-0.5,0.2-1,0.3-1.5,0.3c-1,0-2.1-0.5-2.9-1.2c-0.7-0.9-1-1.9-1-2.9l6.7-74.7C41.9,30.7,43.8,29.5,45.5,29.5z M45.5,28.8
	c-2.2,0-4.3,1.7-4.6,4.1l-6.7,74.7c-0.3,2.8,2.1,5,4.6,5c0.7,0,1.2-0.2,1.9-0.5l68-31.3c3.3-1.5,3.6-5.9,0.7-7.9L48.1,29.7
	C47.2,29,46.3,28.8,45.5,28.8z"/>
<path class="st7" d="M42.4,32.1c0.7,0,1.4,0.2,1.9,0.5L108,69.3c1.2,0.7,1.9,1.9,1.9,3.3s-0.7,2.6-1.9,3.3l-63.7,36.8
	c-0.5,0.3-1.2,0.5-1.9,0.5c-1,0-1.9-0.3-2.6-1c-0.7-0.7-1.2-1.7-1.2-2.8V35.9c0-1,0.3-2.1,1.2-2.8C40.5,32.4,41.4,32.1,42.4,32.1z
	 M42.4,31.4c-2.4,0-4.5,1.9-4.5,4.5v73.5c0,2.6,2.1,4.5,4.5,4.5c0.7,0,1.5-0.2,2.2-0.5l63.7-36.7c2.9-1.7,2.9-6,0-7.7L44.6,32.1
	C43.9,31.6,43.1,31.4,42.4,31.4z"/>
</svg>
